<svg version="1.1"
     baseProfile="full"
     xmlns="http://www.w3.org/2000/svg"
     viewBox="0 0 512 512" xlink:href="data:image/png;base64">
    <g>
    <path d="M158,472H60c-11.028,0-20-8.972-20-20v-95c0-11.046-8.954-20-20-20s-20,8.954-20,20v95c0,33.084,26.916,60,60,60h98 c11.046,0,20-8.954,20-20C178,480.954,169.046,472,158,472z" />
    <path d="M147.099,152.815c-7.834-7.786-20.498-7.748-28.284,0.086c-7.787,7.834-7.748,20.498,0.086,28.284L175.056,237H20 c-11.046,0-20,8.954-20,20s8.954,20,20,20h153.507l-54.676,54.885c-7.796,7.825-7.771,20.489,0.054,28.284 C122.788,364.057,127.894,366,133,366c5.131,0,10.262-1.962,14.169-5.885l61.257-61.491c11.333-11.333,17.574-26.4,17.574-42.427 c0-16.026-6.241-31.094-17.617-42.469L147.099,152.815z" />
    <path d="M20,176c11.046,0,20-8.954,20-20V60c0-11.028,8.972-20,20-20h98c11.046,0,20-8.954,20-20s-8.954-20-20-20H60 C26.916,0,0,26.916,0,60v96C0,167.046,8.954,176,20,176z" />
    <path d="M492,237H336.944l56.155-55.815c7.834-7.787,7.873-20.45,0.086-28.284s-20.45-7.873-28.284-0.086l-61.327,60.956 C292.241,225.104,286,240.171,286,256.197c0,16.027,6.241,31.094,17.547,42.4l61.284,61.518C368.739,364.038,373.869,366,379,366 c5.105,0,10.212-1.943,14.115-5.831c7.825-7.795,7.85-20.459,0.054-28.284L338.493,277H492c11.046,0,20-8.954,20-20 C512,245.954,503.046,237,492,237z" />
    <path d="M452,0h-98c-11.046,0-20,8.954-20,20s8.954,20,20,20h98c11.028,0,20,8.972,20,20v96c0,11.046,8.954,20,20,20 c11.046,0,20-8.954,20-20V60C512,26.916,485.084,0,452,0z" />
    <path d="M492,337c-11.046,0-20,8.954-20,20v95c0,11.028-8.972,20-20,20h-98c-11.046,0-20,8.954-20,20c0,11.046,8.954,20,20,20h98 c33.084,0,60-26.916,60-60v-95C512,345.954,503.046,337,492,337z" />
    </g>
</svg>
